<svg width="20" height="20" viewBox="0 0 20 20" fill="none" xmlns="http://www.w3.org/2000/svg">
    <path fill="#065CF3"
          d="M0 4c0-1.1 1-2 2.22-2h15.56c.59 0 1.15.21 1.57.59.42.37.65.88.65 1.41v14a1.9 1.9 0 0 1-.65 1.41c-.42.38-.98.59-1.57.59H2.22c-.59 0-1.15-.21-1.57-.59A1.9 1.9 0 0 1 0 18V4Zm1.67 1.83v12.5h16.66V5.83H1.67ZM4.44 0h2.23v2H4.44V0Zm8.9 0h2.22v2h-2.23V0Zm-8.9 9h2.23v2H4.44V9Zm0 4h2.23v2H4.44v-2ZM8.9 9h2.22v2H8.9V9Zm0 4h2.22v2H8.9v-2Zm4.44-4h2.23v2h-2.23V9Zm0 4h2.23v2h-2.23v-2Z"/>
</svg>