<svg width="24" height="24" viewBox="0 0 24 24" fill="none" xmlns="http://www.w3.org/2000/svg">
    <path fill="CurrentColor"
          d="M21.38 13.67Zm-.59-.45c.09.27.33.44.6.45.05 0 .11-.02.18-.04.32-.1.5-.47.4-.81C21.94 12.74 19.44 5 12 5c-7.44 0-9.94 7.74-9.97 7.82-.1.34.08.7.4.81.33.11.68-.08.8-.41.1-.35 2.28-6.92 8.78-6.92 6.53 0 8.7 6.63 8.78 6.92Zm-11.7.45c0-.8.3-1.58.85-2.15a2.86 2.86 0 0 1 4.12 0 3.1 3.1 0 0 1 0 4.3 2.86 2.86 0 0 1-4.12 0 3.1 3.1 0 0 1-.86-2.15ZM12 9.33c-1.1 0-2.16.46-2.95 1.27a4.42 4.42 0 0 0 0 6.13 4.09 4.09 0 0 0 5.9 0 4.42 4.42 0 0 0 0-6.13A4.09 4.09 0 0 0 12 9.33Z"/>
    <path stroke="CurrentColor" stroke-width="1.3" stroke-linecap="round" stroke-linejoin="round"
          d="M6.87 17.13a20.26 20.26 0 0 1-4.13-4.1 1.7 1.7 0 0 1 0-2.07C4.24 9.01 7.82 5 12 5a9 9 0 0 1 5.13 1.87 M14.13 9.89a3 3 0 1 0-4.24 4.24M4 20 20 4M10 18.7c.65.2 1.32.3 2 .3 4.18 0 7.76-4.01 9.26-5.96a1.7 1.7 0 0 0 0-2.08A22.94 22.94 0 0 0 19.57 9"/>
</svg>